<svg width="30" height="30" viewBox="0 0 30 30" fill="none" xmlns="http://www.w3.org/2000/svg">
<path d="M18.3312 2.9125C18.5535 2.80136 18.8109 2.78304 19.0467 2.86156C19.2825 2.94008 19.4775 3.10902 19.5887 3.33125L22.34 8.83375C24.0312 8.96375 25.0925 9.29625 25.7775 10.1425C26.3225 10.8162 26.4975 11.6537 26.4337 12.8125H3.56625C3.5025 11.6537 3.67875 10.8162 4.2225 10.1425C4.9075 9.295 5.96875 8.96375 7.66 8.83375L10.4113 3.33125C10.5235 3.11079 10.7183 2.94362 10.9532 2.86616C11.1881 2.78871 11.4442 2.80725 11.6655 2.91775C11.8868 3.02824 12.0555 3.22174 12.1348 3.45607C12.2141 3.6904 12.1975 3.94657 12.0887 4.16875L9.795 8.75625C10.3975 8.75208 11.0583 8.75 11.7775 8.75H18.2225C18.9417 8.74917 19.6025 8.75125 20.205 8.75625L17.9112 4.16875C17.8002 3.9463 17.7821 3.68884 17.8608 3.45302C17.9396 3.21719 18.1088 3.02357 18.3312 2.9125Z" fill="black"/>
<path fill-rule="evenodd" clip-rule="evenodd" d="M4.44377 17.8212C4.21323 16.7804 4.0007 15.7357 3.80627 14.6875H26.1938C25.9993 15.7357 25.7868 16.7804 25.5563 17.8212L25.02 20.3212C24.4113 23.1625 24.1075 24.5825 23.0763 25.4163C22.045 26.25 20.5925 26.25 17.6875 26.25H12.3125C9.40753 26.25 7.95502 26.25 6.92502 25.4163C5.89252 24.5825 5.58752 23.1625 4.98002 20.3212L4.44377 17.8212ZM12.5 16.5625C12.2514 16.5625 12.0129 16.6613 11.8371 16.8371C11.6613 17.0129 11.5625 17.2514 11.5625 17.5C11.5625 17.7486 11.6613 17.9871 11.8371 18.1629C12.0129 18.3387 12.2514 18.4375 12.5 18.4375H17.5C17.7487 18.4375 17.9871 18.3387 18.1629 18.1629C18.3388 17.9871 18.4375 17.7486 18.4375 17.5C18.4375 17.2514 18.3388 17.0129 18.1629 16.8371C17.9871 16.6613 17.7487 16.5625 17.5 16.5625H12.5Z" fill="black"/>
</svg>
