<svg width="30" height="30" viewBox="0 0 30 30" fill="none" xmlns="http://www.w3.org/2000/svg">
<path d="M12.5 3.75H5C4.66848 3.75 4.35054 3.8817 4.11612 4.11612C3.8817 4.35054 3.75 4.66848 3.75 5V12.5C3.75 12.8315 3.8817 13.1495 4.11612 13.3839C4.35054 13.6183 4.66848 13.75 5 13.75H12.5C12.8315 13.75 13.1495 13.6183 13.3839 13.3839C13.6183 13.1495 13.75 12.8315 13.75 12.5V5C13.75 4.66848 13.6183 4.35054 13.3839 4.11612C13.1495 3.8817 12.8315 3.75 12.5 3.75ZM25 3.75H17.5C17.1685 3.75 16.8505 3.8817 16.6161 4.11612C16.3817 4.35054 16.25 4.66848 16.25 5V12.5C16.25 12.8315 16.3817 13.1495 16.6161 13.3839C16.8505 13.6183 17.1685 13.75 17.5 13.75H25C25.3315 13.75 25.6495 13.6183 25.8839 13.3839C26.1183 13.1495 26.25 12.8315 26.25 12.5V5C26.25 4.66848 26.1183 4.35054 25.8839 4.11612C25.6495 3.8817 25.3315 3.75 25 3.75ZM12.5 16.25H5C4.66848 16.25 4.35054 16.3817 4.11612 16.6161C3.8817 16.8505 3.75 17.1685 3.75 17.5V25C3.75 25.3315 3.8817 25.6495 4.11612 25.8839C4.35054 26.1183 4.66848 26.25 5 26.25H12.5C12.8315 26.25 13.1495 26.1183 13.3839 25.8839C13.6183 25.6495 13.75 25.3315 13.75 25V17.5C13.75 17.1685 13.6183 16.8505 13.3839 16.6161C13.1495 16.3817 12.8315 16.25 12.5 16.25ZM21.25 16.25C22.2283 16.25 23.185 16.537 24.0018 17.0754C24.8186 17.6138 25.4595 18.3799 25.8451 19.279C26.2307 20.178 26.3442 21.1704 26.1714 22.1333C25.9985 23.0962 25.5471 23.9872 24.8728 24.696C24.1986 25.4048 23.3313 25.9003 22.3783 26.121C21.4252 26.3418 20.4284 26.2781 19.5112 25.9379C18.594 25.5977 17.7967 24.9959 17.2182 24.2071C16.6396 23.4183 16.3052 22.477 16.2563 21.5L16.25 21.25L16.2563 21C16.3204 19.7188 16.8745 18.5113 17.804 17.6272C18.7335 16.743 19.9672 16.25 21.25 16.25Z" fill="#04002D"/>
</svg>
