<svg width="40" height="40" viewBox="0 0 40 40" fill="none" xmlns="http://www.w3.org/2000/svg">
<path d="M4.375 7.5C3.87772 7.5 3.40081 7.69754 3.04917 8.04917C2.69754 8.40081 2.5 8.87772 2.5 9.375C2.5 9.87228 2.69754 10.3492 3.04917 10.7008C3.40081 11.0525 3.87772 11.25 4.375 11.25H35.625C36.1223 11.25 36.5992 11.0525 36.9508 10.7008C37.3025 10.3492 37.5 9.87228 37.5 9.375C37.5 8.87772 37.3025 8.40081 36.9508 8.04917C36.5992 7.69754 36.1223 7.5 35.625 7.5H4.375ZM4.375 15C3.87772 15 3.40081 15.1975 3.04917 15.5492C2.69754 15.9008 2.5 16.3777 2.5 16.875C2.5 17.3723 2.69754 17.8492 3.04917 18.2008C3.40081 18.5525 3.87772 18.75 4.375 18.75H35.625C36.1223 18.75 36.5992 18.5525 36.9508 18.2008C37.3025 17.8492 37.5 17.3723 37.5 16.875C37.5 16.3777 37.3025 15.9008 36.9508 15.5492C36.5992 15.1975 36.1223 15 35.625 15H4.375ZM2.5 24.375C2.5 23.8777 2.69754 23.4008 3.04917 23.0492C3.40081 22.6975 3.87772 22.5 4.375 22.5H35.625C36.1223 22.5 36.5992 22.6975 36.9508 23.0492C37.3025 23.4008 37.5 23.8777 37.5 24.375C37.5 24.8723 37.3025 25.3492 36.9508 25.7008C36.5992 26.0525 36.1223 26.25 35.625 26.25H4.375C3.87772 26.25 3.40081 26.0525 3.04917 25.7008C2.69754 25.3492 2.5 24.8723 2.5 24.375ZM4.375 30C3.87772 30 3.40081 30.1975 3.04917 30.5492C2.69754 30.9008 2.5 31.3777 2.5 31.875C2.5 32.3723 2.69754 32.8492 3.04917 33.2008C3.40081 33.5525 3.87772 33.75 4.375 33.75H25.625C26.1223 33.75 26.5992 33.5525 26.9508 33.2008C27.3025 32.8492 27.5 32.3723 27.5 31.875C27.5 31.3777 27.3025 30.9008 26.9508 30.5492C26.5992 30.1975 26.1223 30 25.625 30H4.375Z" fill="black"/>
</svg>
