<svg width="72" height="70" viewBox="0 0 72 70" fill="none" xmlns="http://www.w3.org/2000/svg">
<g clip-path="url(#clip0_48_191)">
<path d="M65.3312 70H7.61489C3.92993 70 0.955322 67.0687 0.955322 63.4375V10.9375C0.955322 7.30625 3.92993 4.375 7.61489 4.375H65.3312C69.0161 4.375 71.9907 7.30625 71.9907 10.9375V63.4375C71.9907 67.0687 69.0161 70 65.3312 70ZM7.61489 8.75C6.37177 8.75 5.39504 9.7125 5.39504 10.9375V63.4375C5.39504 64.6625 6.37177 65.625 7.61489 65.625H65.3312C66.5743 65.625 67.551 64.6625 67.551 63.4375V10.9375C67.551 9.7125 66.5743 8.75 65.3312 8.75H7.61489Z" fill="#04002D"/>
<path d="M20.934 17.5C19.6909 17.5 18.7142 16.5375 18.7142 15.3125V2.1875C18.7142 0.9625 19.6909 0 20.934 0C22.1772 0 23.1539 0.9625 23.1539 2.1875V15.3125C23.1539 16.5375 22.1772 17.5 20.934 17.5ZM52.012 17.5C50.7689 17.5 49.7922 16.5375 49.7922 15.3125V2.1875C49.7922 0.9625 50.7689 0 52.012 0C53.2552 0 54.2319 0.9625 54.2319 2.1875V15.3125C54.2319 16.5375 53.2552 17.5 52.012 17.5ZM69.7709 26.25H3.17518C1.93206 26.25 0.955322 25.2875 0.955322 24.0625C0.955322 22.8375 1.93206 21.875 3.17518 21.875H69.7709C71.014 21.875 71.9907 22.8375 71.9907 24.0625C71.9907 25.2875 71.014 26.25 69.7709 26.25Z" fill="#04002D"/>
</g>
<defs>
<clipPath id="clip0_48_191">
<rect width="71.0354" height="70" fill="white" transform="translate(0.955322)"/>
</clipPath>
</defs>
</svg>
