<svg width="50" height="50" viewBox="0 0 50 50" fill="none" xmlns="http://www.w3.org/2000/svg">
<path d="M30.2083 37.5C28.75 37.5 27.5174 36.9965 26.5104 35.9896C25.5035 34.9826 25 33.75 25 32.2917C25 30.8333 25.5035 29.6007 26.5104 28.5937C27.5174 27.5868 28.75 27.0833 30.2083 27.0833C31.6667 27.0833 32.8993 27.5868 33.9062 28.5937C34.9132 29.6007 35.4167 30.8333 35.4167 32.2917C35.4167 33.75 34.9132 34.9826 33.9062 35.9896C32.8993 36.9965 31.6667 37.5 30.2083 37.5ZM10.4167 45.8333C9.27083 45.8333 8.29028 45.4257 7.475 44.6104C6.65972 43.7951 6.25139 42.8139 6.25 41.6667V12.5C6.25 11.3542 6.65833 10.3736 7.475 9.55832C8.29167 8.74305 9.27222 8.33471 10.4167 8.33332H12.5V4.16666H16.6667V8.33332H33.3333V4.16666H37.5V8.33332H39.5833C40.7292 8.33332 41.7104 8.74166 42.5271 9.55832C43.3438 10.375 43.7514 11.3555 43.75 12.5V41.6667C43.75 42.8125 43.3424 43.7937 42.5271 44.6104C41.7118 45.4271 40.7306 45.8347 39.5833 45.8333H10.4167ZM10.4167 41.6667H39.5833V20.8333H10.4167V41.6667Z" fill="#FDFDFC"/>
</svg>
