<svg width="30" height="30" viewBox="0 0 30 30" fill="none" xmlns="http://www.w3.org/2000/svg">
<path d="M10.9375 12.5C10.9375 11.4226 11.3655 10.3892 12.1274 9.62738C12.8892 8.86551 13.9226 8.4375 15 8.4375C16.0774 8.4375 17.1108 8.86551 17.8726 9.62738C18.6345 10.3892 19.0625 11.4226 19.0625 12.5C19.0625 13.5774 18.6345 14.6108 17.8726 15.3726C17.1108 16.1345 16.0774 16.5625 15 16.5625C13.9226 16.5625 12.8892 16.1345 12.1274 15.3726C11.3655 14.6108 10.9375 13.5774 10.9375 12.5Z" fill="#04002D"/>
<path fill-rule="evenodd" clip-rule="evenodd" d="M4.71753 11.0962C4.92545 8.58344 6.07031 6.24059 7.92499 4.53248C9.77966 2.82437 12.2086 1.87582 14.73 1.875H15.27C17.7914 1.87582 20.2204 2.82437 22.0751 4.53248C23.9298 6.24059 25.0746 8.58344 25.2825 11.0962C25.5133 13.9018 24.6471 16.6874 22.8663 18.8675L16.875 26.195C16.648 26.4729 16.3619 26.6969 16.0376 26.8507C15.7134 27.0045 15.3589 27.0843 15 27.0843C14.6411 27.0843 14.2867 27.0045 13.9624 26.8507C13.6381 26.6969 13.3521 26.4729 13.125 26.195L7.13503 18.8675C5.35373 16.6876 4.48715 13.9019 4.71753 11.0962ZM15 6.5625C13.4253 6.5625 11.9151 7.18806 10.8016 8.30155C9.68809 9.41505 9.06253 10.9253 9.06253 12.5C9.06253 14.0747 9.68809 15.5849 10.8016 16.6984C11.9151 17.8119 13.4253 18.4375 15 18.4375C16.5748 18.4375 18.085 17.8119 19.1985 16.6984C20.312 15.5849 20.9375 14.0747 20.9375 12.5C20.9375 10.9253 20.312 9.41505 19.1985 8.30155C18.085 7.18806 16.5748 6.5625 15 6.5625Z" fill="#04002D"/>
</svg>
