<svg width="40" height="40" viewBox="0 0 40 40" fill="none" xmlns="http://www.w3.org/2000/svg">
<path fill-rule="evenodd" clip-rule="evenodd" d="M20 1.66666C19.5222 1.66659 19.05 1.76924 18.6154 1.96763C18.1807 2.16603 17.7938 2.45554 17.4809 2.81655C17.1679 3.17756 16.9362 3.60163 16.8015 4.06001C16.6668 4.5184 16.6322 5.00039 16.7 5.47332C14.284 6.18581 12.1634 7.66112 10.6553 9.67869C9.14725 11.6963 8.33266 14.1477 8.33333 16.6667V30H6.66667C6.22464 30 5.80072 30.1756 5.48816 30.4881C5.17559 30.8007 5 31.2246 5 31.6667C5 32.1087 5.17559 32.5326 5.48816 32.8452C5.80072 33.1577 6.22464 33.3333 6.66667 33.3333H33.3333C33.7754 33.3333 34.1993 33.1577 34.5118 32.8452C34.8244 32.5326 35 32.1087 35 31.6667C35 31.2246 34.8244 30.8007 34.5118 30.4881C34.1993 30.1756 33.7754 30 33.3333 30H31.6667V16.6667C31.6673 14.1477 30.8528 11.6963 29.3447 9.67869C27.8366 7.66112 25.716 6.18581 23.3 5.47332C23.3222 5.31777 23.3333 5.15999 23.3333 4.99999C23.3333 4.11593 22.9821 3.26809 22.357 2.64297C21.7319 2.01785 20.8841 1.66666 20 1.66666ZM23.3333 36.6667C23.3333 37.1087 23.1577 37.5326 22.8452 37.8452C22.5326 38.1577 22.1087 38.3333 21.6667 38.3333H18.3333C17.8913 38.3333 17.4674 38.1577 17.1548 37.8452C16.8423 37.5326 16.6667 37.1087 16.6667 36.6667C16.6667 36.2246 16.8423 35.8007 17.1548 35.4881C17.4674 35.1756 17.8913 35 18.3333 35H21.6667C22.1087 35 22.5326 35.1756 22.8452 35.4881C23.1577 35.8007 23.3333 36.2246 23.3333 36.6667Z" fill="#04002D"/>
</svg>
