<svg width="82" height="80" viewBox="0 0 82 80" fill="none" xmlns="http://www.w3.org/2000/svg">
<path d="M7.54919 30C7.54919 23.7134 7.54919 20.5734 9.53142 18.62C11.5136 16.6667 14.7001 16.6667 21.0798 16.6667H61.6714C68.0511 16.6667 71.2375 16.6667 73.2197 18.62C75.202 20.5734 75.202 23.7134 75.202 30C75.202 31.57 75.202 32.3567 74.7081 32.8467C74.2109 33.3334 73.4092 33.3334 71.8193 33.3334H10.9318C9.33861 33.3334 8.54031 33.3334 8.04306 32.8467C7.54919 32.3567 7.54919 31.5667 7.54919 30ZM7.54919 60C7.54919 66.2867 7.54919 69.4267 9.53142 71.38C11.5136 73.3334 14.7001 73.3334 21.0798 73.3334H61.6714C68.0511 73.3334 71.2375 73.3334 73.2197 71.38C75.202 69.4267 75.202 66.2867 75.202 60V43.3334C75.202 41.7634 75.202 40.9767 74.7081 40.4867C74.2109 40 73.4092 40 71.8193 40H10.9318C9.33861 40 8.54031 40 8.04306 40.4867C7.54919 40.9767 7.54919 41.7667 7.54919 43.3334V60Z" fill="#04002D"/>
<path d="M24.4624 10V20M58.2888 10V20" stroke="#04002D" stroke-width="2" stroke-linecap="round"/>
</svg>
