<svg width="82" height="80" viewBox="0 0 82 80" fill="none" xmlns="http://www.w3.org/2000/svg">
<path d="M40.6112 6.66669C59.2935 6.66669 74.4376 21.59 74.4376 40C74.4376 58.41 59.2935 73.3334 40.6112 73.3334C21.9289 73.3334 6.78481 58.41 6.78481 40C6.78481 21.59 21.9289 6.66669 40.6112 6.66669ZM40.6112 20C39.7141 20 38.8537 20.3512 38.2193 20.9763C37.5849 21.6015 37.2286 22.4493 37.2286 23.3334V40C37.2287 40.884 37.5853 41.7317 38.2197 42.3567L48.3676 52.3567C49.0056 52.9639 49.86 53.2999 50.7469 53.2923C51.6339 53.2847 52.4823 52.9341 53.1094 52.3161C53.7366 51.6981 54.0923 50.862 54.1001 49.988C54.1078 49.114 53.7668 48.272 53.1506 47.6434L43.9938 38.62V23.3334C43.9938 22.4493 43.6374 21.6015 43.0031 20.9763C42.3687 20.3512 41.5083 20 40.6112 20Z" fill="#04002D"/>
</svg>
