<svg width="100" height="98" viewBox="0 0 100 98" fill="none" xmlns="http://www.w3.org/2000/svg">
<path d="M59.5602 24.631L72.9861 14.2329L69.105 30.7651L68.3151 34.1299L71.758 33.8268L88.6743 32.338L76.4714 44.1475L73.9877 46.5511L77.0479 48.1576L92.0837 56.0507L75.4332 59.3881L72.0444 60.0673L73.7502 63.0732L82.1318 77.8424L66.3202 71.648L63.1021 70.3873L62.912 73.8383L61.9783 90.7942L52.0256 77.0348L50 74.2344L47.9744 77.0348L38.0217 90.7942L37.088 73.8383L36.8979 70.3873L33.6798 71.648L17.8682 77.8424L26.2498 63.0732L27.9556 60.0673L24.5668 59.3881L7.9163 56.0507L22.9521 48.1576L26.0123 46.5511L23.5287 44.1475L11.3257 32.338L28.242 33.8268L31.6849 34.1299L30.895 30.7651L27.0139 14.2329L40.4398 24.631L43.1724 26.7473L44.327 23.4896L50 7.48354L55.673 23.4896L56.8276 26.7473L59.5602 24.631Z" fill="#FF4911" stroke="black" stroke-width="5"/>
</svg>
